<?xml version="1.0" encoding="iso-8859-1"?>
<!-- Generator: Adobe Illustrator 19.0.0, SVG Export Plug-In . SVG Version: 6.00 Build 0)  -->
<svg version="1.1" id="Capa_1" xmlns="http://www.w3.org/2000/svg" xmlns:xlink="http://www.w3.org/1999/xlink" x="0px" y="0px"
	 viewBox="0 0 436.907 436.907" style="enable-background:new 0 0 436.907 436.907;" xml:space="preserve">
<g>
	<path style="fill:#602F75;" d="M256.06,160.826c-0.44,0-0.887-0.039-1.34-0.133c-3.7-0.734-6.1-4.326-5.361-8.026l14.933-75.047
		c0.734-3.693,4.294-6.153,8.026-5.361c3.7,0.734,6.1,4.326,5.361,8.026l-14.933,75.047
		C262.1,158.58,259.253,160.826,256.06,160.826z"/>
	<path style="fill:#602F75;" d="M273.067,409.6c-3.773,0-6.827-3.053-6.827-6.827V389.12c0-3.773,3.053-6.827,6.827-6.827
		s6.827,3.053,6.827,6.827v13.653C279.893,406.547,276.84,409.6,273.067,409.6z"/>
	<path style="fill:#602F75;" d="M81.92,251.947c-0.8,0-1.606-0.14-2.393-0.433c-3.533-1.326-5.32-5.26-4-8.786
		c22.927-61.167,59.194-51.154,60.72-50.714c3.613,1.074,5.68,4.873,4.606,8.487c-1.06,3.587-4.806,5.652-8.4,4.634
		c-1.253-0.321-26.006-5.973-44.14,42.38C87.287,250.26,84.68,251.947,81.92,251.947z"/>
</g>
<circle style="fill:#FFFFFF;" cx="68.267" cy="259.413" r="27.307"/>
<g>
	<path style="fill:#602F75;" d="M68.267,293.547c-18.819,0-34.133-15.314-34.133-34.133s15.314-34.133,34.133-34.133
		s34.133,15.314,34.133,34.133S87.086,293.547,68.267,293.547z M68.267,238.933c-11.293,0-20.48,9.187-20.48,20.48
		c0,11.293,9.187,20.48,20.48,20.48s20.48-9.187,20.48-20.48C88.747,248.12,79.56,238.933,68.267,238.933z"/>
	<path style="fill:#602F75;" d="M354.987,251.947c-2.76,0-5.367-1.686-6.393-4.434c-18.193-48.546-43.1-42.66-44.153-42.38
		c-3.587,0.927-7.359-1.161-8.359-4.753c-1-3.593,1.007-7.306,4.581-8.366c1.527-0.434,37.794-10.44,60.72,50.714
		c1.319,3.526-0.466,7.46-4,8.786C356.593,251.807,355.787,251.947,354.987,251.947z"/>
</g>
<circle style="fill:#FFFFFF;" cx="368.64" cy="259.413" r="27.307"/>
<g>
	<path style="fill:#602F75;" d="M368.64,293.547c-18.819,0-34.133-15.314-34.133-34.133s15.314-34.133,34.133-34.133
		s34.133,15.314,34.133,34.133S387.459,293.547,368.64,293.547z M368.64,238.933c-11.293,0-20.48,9.187-20.48,20.48
		c0,11.293,9.187,20.48,20.48,20.48s20.48-9.187,20.48-20.48C389.12,248.12,379.933,238.933,368.64,238.933z"/>
	<path style="fill:#602F75;" d="M175.326,170.054c-3.36,0-6.281-2.473-6.753-5.893L154.086,59.534
		c-0.521-3.734,2.087-7.18,5.827-7.694c3.714-0.546,7.173,2.094,7.694,5.827l14.486,104.627c0.521,3.734-2.087,7.18-5.827,7.694
		C175.954,170.033,175.633,170.054,175.326,170.054z"/>
	<path style="fill:#602F75;" d="M163.84,409.6c-3.773,0-6.827-3.053-6.827-6.827V389.12c0-3.773,3.053-6.827,6.827-6.827
		c3.773,0,6.827,3.053,6.827,6.827v13.653C170.667,406.547,167.613,409.6,163.84,409.6z"/>
</g>
<path style="fill:#FFFFFF;" d="M314.027,307.202v75.092H122.88V170.706c0-18.874,15.319-34.173,34.173-34.173h122.801
	c18.872,0,34.173,15.28,34.173,34.173v88.707"/>
<path style="fill:#602F75;" d="M314.027,389.12H122.88c-3.773,0-6.827-3.053-6.827-6.827V170.706
	c0-22.607,18.393-40.999,40.999-40.999h122.8c22.608,0,41.001,18.393,41.001,40.999v88.707c0,3.773-3.053,6.827-6.827,6.827
	s-6.827-3.053-6.827-6.827v-88.707c0-15.08-12.268-27.346-27.346-27.346h-122.8c-15.08,0-27.348,12.268-27.348,27.346v204.761H307.2
	V307.2c0-3.773,3.053-6.827,6.827-6.827s6.827,3.053,6.827,6.827v75.093C320.853,386.067,317.8,389.12,314.027,389.12z"/>
<g>
	<rect x="163.84" y="211.627" style="fill:#00E7FF;" width="109.227" height="143.36"/>
	<path style="fill:#00E7FF;" d="M273.067,361.813H163.84c-3.773,0-6.827-3.053-6.827-6.827v-143.36c0-3.773,3.053-6.827,6.827-6.827
		h109.227c3.773,0,6.827,3.053,6.827,6.827v143.36C279.893,358.76,276.84,361.813,273.067,361.813z M170.667,348.16h95.573V218.453
		h-95.573V348.16z"/>
</g>
<g>
	<circle style="fill:#EA3457;" cx="238.933" cy="245.76" r="13.653"/>
	<path style="fill:#EA3457;" d="M238.933,266.24c-11.293,0-20.48-9.187-20.48-20.48s9.187-20.48,20.48-20.48
		c11.293,0,20.48,9.187,20.48,20.48S250.226,266.24,238.933,266.24z M238.933,238.933c-3.767,0-6.827,3.06-6.827,6.827
		s3.06,6.827,6.827,6.827s6.827-3.06,6.827-6.827S242.7,238.933,238.933,238.933z"/>
</g>
<g>
	<circle style="fill:#FFE600;" cx="238.933" cy="293.547" r="13.653"/>
	<path style="fill:#FFE600;" d="M238.933,314.027c-11.293,0-20.48-9.187-20.48-20.48c0-11.293,9.187-20.48,20.48-20.48
		c11.293,0,20.48,9.187,20.48,20.48C259.413,304.84,250.226,314.027,238.933,314.027z M238.933,286.72
		c-3.767,0-6.827,3.06-6.827,6.827c0,3.767,3.06,6.827,6.827,6.827s6.827-3.06,6.827-6.827
		C245.76,289.78,242.7,286.72,238.933,286.72z"/>
</g>
<circle style="fill:#EA3457;" cx="273.067" cy="61.44" r="34.133"/>
<path style="fill:#602F75;" d="M273.067,102.4c-22.586,0-40.96-18.374-40.96-40.96s18.374-40.96,40.96-40.96
	c22.586,0,40.96,18.374,40.96,40.96S295.653,102.4,273.067,102.4z M273.067,34.133c-15.06,0-27.307,12.247-27.307,27.307
	s12.247,27.307,27.307,27.307S300.373,76.5,300.373,61.44S288.126,34.133,273.067,34.133z"/>
<circle style="fill:#EA3457;" cx="157.013" cy="40.96" r="34.133"/>
<path style="fill:#602F75;" d="M157.013,81.92c-22.586,0-40.96-18.374-40.96-40.96S134.427,0,157.013,0s40.96,18.374,40.96,40.96
	S179.599,81.92,157.013,81.92z M157.013,13.653c-15.06,0-27.307,12.247-27.307,27.307s12.247,27.307,27.307,27.307
	S184.32,56.02,184.32,40.96S172.073,13.653,157.013,13.653z"/>
<circle style="fill:#FFFFFF;" cx="150.187" cy="34.133" r="6.827"/>
<path style="fill:#602F75;" d="M150.187,47.787c-7.526,0-13.653-6.127-13.653-13.653s6.127-13.653,13.653-13.653
	c7.526,0,13.653,6.127,13.653,13.653S157.713,47.787,150.187,47.787z"/>
<circle style="fill:#FFFFFF;" cx="266.24" cy="54.613" r="6.827"/>
<path style="fill:#602F75;" d="M266.24,68.267c-7.526,0-13.653-6.127-13.653-13.653s6.127-13.653,13.653-13.653
	c7.526,0,13.653,6.127,13.653,13.653S273.766,68.267,266.24,68.267z"/>
<path style="fill:#FFFFFF;" d="M191.147,430.08c0-15.082-12.227-27.307-27.307-27.307c-15.08,0-27.307,12.225-27.307,27.307H191.147
	z"/>
<path style="fill:#602F75;" d="M191.147,436.907h-54.613c-3.773,0-6.827-3.053-6.827-6.827c0-18.819,15.314-34.133,34.133-34.133
	c18.819,0,34.133,15.314,34.133,34.133C197.973,433.853,194.92,436.907,191.147,436.907z M144.527,423.253h38.627
	c-2.819-7.946-10.414-13.653-19.313-13.653C154.943,409.6,147.347,415.307,144.527,423.253z"/>
<path style="fill:#FFFFFF;" d="M300.373,430.08c0-15.082-12.227-27.307-27.307-27.307s-27.307,12.225-27.307,27.307H300.373z"/>
<path style="fill:#602F75;" d="M300.373,436.907H245.76c-3.773,0-6.827-3.053-6.827-6.827c0-18.819,15.314-34.133,34.133-34.133
	S307.2,411.261,307.2,430.08C307.2,433.853,304.147,436.907,300.373,436.907z M253.754,423.253h38.627
	c-2.819-7.946-10.414-13.653-19.313-13.653S256.573,415.307,253.754,423.253z"/>
<g>
</g>
<g>
</g>
<g>
</g>
<g>
</g>
<g>
</g>
<g>
</g>
<g>
</g>
<g>
</g>
<g>
</g>
<g>
</g>
<g>
</g>
<g>
</g>
<g>
</g>
<g>
</g>
<g>
</g>
</svg>
