<?xml version="1.0" encoding="iso-8859-1"?>
<!-- Generator: Adobe Illustrator 19.0.0, SVG Export Plug-In . SVG Version: 6.00 Build 0)  -->
<svg version="1.1" id="Capa_1" xmlns="http://www.w3.org/2000/svg" xmlns:xlink="http://www.w3.org/1999/xlink" x="0px" y="0px"
	 viewBox="0 0 512 512" style="enable-background:new 0 0 512 512;" xml:space="preserve">
<g>
	<g>
		<path d="M511.224,410.635l-21.035-50.362c-3.04-7.279-9.826-11.901-17.713-12.064c-7.871-0.157-14.859,4.175-18.197,11.322
			l-16.6,35.54l-25.57-62.45c-3.238-7.908-10.836-12.693-19.37-12.158c-8.53,0.521-15.494,6.186-17.745,14.429l-24.404,89.42
			l-20.673-58.593c-2.782-7.884-9.98-13.025-18.34-13.101c-0.063-0.001-0.124-0.001-0.187-0.001
			c-8.281,0-15.485,4.995-18.387,12.769l-9.545,25.567l-18.768-32.981c-2.731-4.801-8.84-6.479-13.636-3.746
			c-4.801,2.731-6.478,8.837-3.746,13.636l19.152,33.657c3.812,6.699,10.953,10.476,18.635,9.863
			c7.684-0.616,14.131-5.484,16.828-12.706l9.466-25.356l20.728,58.747c2.793,7.913,10.167,13.103,18.5,13.103
			c0.243,0,0.488-0.004,0.732-0.013c8.63-0.314,15.955-6.123,18.228-14.453l24.429-89.512l25.478,62.227
			c3.001,7.328,9.781,11.998,17.697,12.189c7.917,0.202,14.915-4.147,18.266-11.321l16.603-35.548l20.718,49.604
			c2.128,5.098,7.982,7.5,13.081,5.374C510.947,421.588,513.353,415.732,511.224,410.635z"/>
	</g>
</g>
<g>
	<g>
		<path d="M501.988,0.013H190.724c-5.522,0-10,4.477-10,9.999v86.309c-7.879-12.549-17.176-24.328-27.813-35.127
			C114.929,22.632,64.234,0.914,10.161,0.041C4.66-0.043,0.091,4.357,0.001,9.877c-0.089,5.522,4.315,10.07,9.838,10.159
			c100.376,1.621,182.038,84.641,182.038,185.065c0,0.983,0.145,1.961,0.431,2.901l32.932,108.613h-44.905
			c-5.522,0-9.999,4.478-9.999,10v27.38h-20.328c-5.522,0-9.999,4.478-9.999,10s4.478,10,9.999,10h20.328v24.79
			c0,21.646-17.61,39.257-39.256,39.257H40.012v-35.782c11.638-4.128,19.999-15.242,19.999-28.279
			c0-16.541-13.457-29.998-29.998-29.998c-16.541,0-29.998,13.457-29.998,29.998c0,13.035,8.361,24.151,19.999,28.279v35.782h-10
			c-5.522,0-10,4.478-10,10s4.478,9.999,10,9.999h43.998v43.948c0,5.522,4.478,10,10,10s10-4.478,10-10V458.04h57.068
			c32.673,0,59.255-26.582,59.255-59.256v-62.169h48.387c3.166,0,6.146-1.499,8.031-4.043c1.887-2.542,2.457-5.828,1.538-8.857
			l-33.871-111.712h107.551v39.238c0,4.044,2.437,7.691,6.173,9.239c1.237,0.512,2.537,0.761,3.825,0.761
			c2.603,0,5.16-1.016,7.073-2.929l46.31-46.31h116.64c5.522,0,10-4.477,10-9.999V10.012C511.987,4.49,507.51,0.013,501.988,0.013z
			 M30.013,383.98c-5.514,0-9.999-4.486-9.999-10s4.486-9.999,9.999-9.999c5.514,0,10,4.486,10,9.999S35.527,383.98,30.013,383.98z
			 M491.989,192.004H381.206c-2.652,0-5.195,1.054-7.071,2.929L341.968,227.1v-25.097c0-5.523-4.478-10-9.999-10H211.454
			c-1.164-18.543-4.794-36.622-10.73-53.855V20.013h291.266V192.004z"/>
	</g>
</g>
<g>
	<g>
		<path d="M135.076,196.884c-1.859-1.87-4.439-2.93-7.069-2.93c-2.63,0-5.21,1.06-7.07,2.93c-1.86,1.86-2.93,4.43-2.93,7.07
			c0,2.63,1.069,5.21,2.93,7.07c1.86,1.86,4.44,2.93,7.07,2.93c2.63,0,5.21-1.07,7.069-2.93c1.86-1.86,2.931-4.44,2.931-7.07
			C138.007,201.314,136.937,198.744,135.076,196.884z"/>
	</g>
</g>
<g>
	<g>
		<path d="M10.322,77.572h-0.307c-5.522,0-9.999,4.477-9.999,10s4.477,10,9.998,10h0.188c0.021,0,0.04,0,0.061,0
			c5.495,0,9.966-4.438,9.999-9.94C20.293,82.109,15.844,77.606,10.322,77.572z"/>
	</g>
</g>
<g>
	<g>
		<path d="M47.631,86.692c-4.905-2.534-10.937-0.617-13.476,4.29c-2.537,4.906-0.616,10.938,4.289,13.475
			c20.705,10.706,33.566,31.823,33.566,55.11c0,34.185-27.812,61.997-61.997,61.997c-5.522,0-10,4.477-10,10s4.479,10,10,10
			c45.213,0,81.996-36.783,81.996-81.996C92.01,128.772,75.005,100.849,47.631,86.692z"/>
	</g>
</g>
<g>
	<g>
		<path d="M38.012,149.568c-5.522,0-10,4.477-10,10c0,9.924-8.075,17.999-17.999,17.999c-5.522,0-10,4.477-10,10
			s4.478,9.999,10,9.999c20.952,0,37.998-17.046,37.998-37.998C48.012,154.045,43.534,149.568,38.012,149.568z"/>
	</g>
</g>
<g>
	<g>
		<path d="M322.973,56.011c-5.522,0-9.999,4.477-9.999,10v79.996c0,5.523,4.477,9.999,9.999,9.999c5.522,0,10-4.477,10-9.999V66.01
			C332.972,60.488,328.495,56.011,322.973,56.011z"/>
	</g>
</g>
<g>
	<g>
		<path d="M463.991,56.011c-5.522,0-9.999,4.477-9.999,10v79.996c0,5.523,4.478,9.999,9.999,9.999c5.522,0,10-4.477,10-9.999V66.01
			C473.99,60.488,469.512,56.011,463.991,56.011z"/>
	</g>
</g>
<g>
	<g>
		<path d="M252.462,56.011c-18.116,0-32.854,14.739-32.854,32.855v34.284c0,18.116,14.738,32.855,32.854,32.855
			c18.116,0,32.855-14.739,32.855-32.855V88.866C285.318,70.75,270.579,56.011,252.462,56.011z M265.319,123.151
			c0,7.089-5.768,12.856-12.856,12.856c-7.089,0-12.855-5.768-12.855-12.856V88.866c0-7.089,5.768-12.856,12.855-12.856
			c7.09,0,12.856,5.768,12.856,12.856V123.151z"/>
	</g>
</g>
<g>
	<g>
		<path d="M393.481,56.011c-18.116,0-32.855,14.739-32.855,32.855v34.284c0,18.116,14.739,32.855,32.855,32.855
			s32.855-14.739,32.855-32.855V88.866C426.337,70.75,411.597,56.011,393.481,56.011z M406.338,123.151
			c0,7.089-5.768,12.856-12.856,12.856s-12.856-5.768-12.856-12.856V88.866c0-7.089,5.768-12.856,12.856-12.856
			s12.856,5.768,12.856,12.856V123.151z"/>
	</g>
</g>
<g>
	<g>
		<path d="M422.812,248.931c-1.869-1.86-4.439-2.93-7.069-2.93c-2.641,0-5.21,1.07-7.07,2.93c-1.86,1.86-2.93,4.44-2.93,7.07
			c0,2.63,1.069,5.21,2.93,7.069c1.86,1.86,4.43,2.931,7.07,2.931c2.63,0,5.2-1.07,7.069-2.931c1.86-1.859,2.931-4.439,2.931-7.069
			C425.743,253.371,424.673,250.791,422.812,248.931z"/>
	</g>
</g>
<g>
	<g>
		<path d="M465.93,248.931c-1.859-1.86-4.439-2.93-7.069-2.93s-5.21,1.07-7.07,2.93s-2.93,4.44-2.93,7.07
			c0,2.63,1.069,5.21,2.93,7.069c1.86,1.86,4.44,2.931,7.07,2.931s5.21-1.07,7.069-2.931c1.87-1.859,2.931-4.439,2.931-7.069
			C468.861,253.371,467.8,250.791,465.93,248.931z"/>
	</g>
</g>
<g>
	<g>
		<path d="M509.058,248.931c-1.859-1.86-4.439-2.93-7.069-2.93s-5.21,1.07-7.07,2.93s-2.93,4.44-2.93,7.07
			c0,2.63,1.069,5.21,2.93,7.069c1.86,1.86,4.44,2.931,7.07,2.931s5.21-1.07,7.069-2.931c1.86-1.859,2.931-4.439,2.931-7.069
			C511.988,253.371,510.918,250.791,509.058,248.931z"/>
	</g>
</g>
<g>
</g>
<g>
</g>
<g>
</g>
<g>
</g>
<g>
</g>
<g>
</g>
<g>
</g>
<g>
</g>
<g>
</g>
<g>
</g>
<g>
</g>
<g>
</g>
<g>
</g>
<g>
</g>
<g>
</g>
</svg>
