<?xml version="1.0" encoding="iso-8859-1"?>
<!-- Generator: Adobe Illustrator 19.0.0, SVG Export Plug-In . SVG Version: 6.00 Build 0)  -->
<svg version="1.1" id="Capa_1" xmlns="http://www.w3.org/2000/svg" xmlns:xlink="http://www.w3.org/1999/xlink" x="0px" y="0px"
	 viewBox="0 0 511.912 511.912" style="enable-background:new 0 0 511.912 511.912;" xml:space="preserve">
<g>
	<g>
		<path d="M150.716,25.776C134.108,9.152,112.004,0,88.5,0C64.996,0,42.892,9.152,26.276,25.776C9.652,42.4,0.5,64.504,0.5,88.008
			c0,23.504,9.16,45.6,25.784,62.216c1.56,1.56,3.608,2.344,5.656,2.344c2.048,0,4.096-0.784,5.656-2.352
			c3.128-3.128,3.128-8.184,0-11.312C23.996,125.312,16.5,107.232,16.5,88s7.488-37.312,21.088-50.912
			C51.188,23.488,69.268,16,88.5,16s37.312,7.488,50.904,21.088c3.128,3.128,8.184,3.128,11.312,0
			C153.844,33.96,153.844,28.904,150.716,25.776z"/>
	</g>
</g>
<g>
	<g>
		<path d="M156.94,258.256L37.596,138.912c-3.128-3.128-8.184-3.128-11.312,0s-3.128,8.184,0,11.312l119.344,119.344
			c1.56,1.56,3.608,2.344,5.656,2.344c2.048,0,4.096-0.784,5.656-2.344C160.068,266.44,160.068,261.384,156.94,258.256z"/>
	</g>
</g>
<g>
	<g>
		<path d="M270.084,145.104L150.724,25.776c-3.128-3.128-8.184-3.128-11.312,0s-3.128,8.184,0,11.312l119.36,119.328
			c1.56,1.56,3.608,2.344,5.656,2.344c2.04,0,4.088-0.776,5.656-2.344C273.212,153.288,273.212,148.232,270.084,145.104z"/>
	</g>
</g>
<g>
	<g>
		<path d="M270.084,145.104c-3.128-3.128-8.184-3.128-11.312,0L145.628,258.256c-3.128,3.128-3.128,8.184,0,11.312
			c1.56,1.56,3.608,2.344,5.656,2.344c2.048,0,4.096-0.784,5.656-2.344l113.144-113.152
			C273.212,153.288,273.212,148.232,270.084,145.104z"/>
	</g>
</g>
<g>
	<g>
		<path d="M311.412,415.912c-4.424,0-8,3.584-8,8c0,19.232-7.488,37.312-21.088,50.912c-13.592,13.592-31.672,21.088-50.912,21.088
			s-37.312-7.496-50.904-21.088c-13.6-13.6-21.088-31.68-21.088-50.912c0-4.416-3.576-8-8-8c-4.416,0-8,3.576-8,8
			c-0.008,23.504,9.144,45.6,25.768,62.224c16.624,16.616,38.72,25.776,62.224,25.776c23.504,0,45.608-9.16,62.224-25.776
			c16.624-16.624,25.784-38.72,25.776-62.224C319.412,419.488,315.828,415.912,311.412,415.912z"/>
	</g>
</g>
<g>
	<g>
		<path d="M311.412,255.912c-4.424,0-8,3.576-8,8v160c0,4.424,3.576,8,8,8c4.416,0,8-3.576,8-8v-160
			C319.412,259.488,315.836,255.912,311.412,255.912z"/>
	</g>
</g>
<g>
	<g>
		<path d="M159.404,263.912c0-4.424-3.584-8-8-8c-4.424,0-8,3.584-8,8l0.016,160c0,4.424,3.584,8,8,8c4.416,0,8-3.584,8-8
			L159.404,263.912z"/>
	</g>
</g>
<g>
	<g>
		<path d="M311.412,255.912H151.404c-4.424,0-8,3.576-8,8s3.576,8,8,8h160.008c4.416,0,8-3.576,8-8S315.836,255.912,311.412,255.912
			z"/>
	</g>
</g>
<g>
	<g>
		<path d="M406.036,105.288c-12.088-12.096-33.152-12.096-45.248,0c-6.048,6.048-9.376,14.08-9.376,22.624
			s3.328,16.576,9.376,22.624c6.048,6.048,14.08,9.376,22.624,9.376s16.576-3.328,22.624-9.376
			c6.048-6.048,9.376-14.08,9.376-22.624S412.084,111.336,406.036,105.288z M394.724,139.224c-6.048,6.048-16.576,6.048-22.624,0
			c-3.024-3.024-4.688-7.04-4.688-11.312s1.664-8.288,4.688-11.312c3.024-3.024,7.04-4.688,11.312-4.688
			c4.272,0,8.288,1.664,11.312,4.688s4.688,7.04,4.688,11.312C399.412,132.184,397.748,136.2,394.724,139.224z"/>
	</g>
</g>
<g>
	<g>
		<path d="M406.036,139.224c-3.128-3.128-8.184-3.128-11.312,0l-33.936,33.944c-3.128,3.128-3.128,8.184,0,11.312
			c1.56,1.56,3.608,2.344,5.656,2.344c2.04,0,4.088-0.776,5.656-2.344l33.936-33.944
			C409.164,147.408,409.164,142.352,406.036,139.224z"/>
	</g>
</g>
<g>
	<g>
		<path d="M372.092,105.288c-3.128-3.128-8.184-3.128-11.312,0l-33.936,33.936c-3.128,3.128-3.128,8.184,0,11.312
			c1.56,1.56,3.608,2.344,5.656,2.344c2.048,0,4.096-0.784,5.656-2.344l33.936-33.936
			C375.22,113.472,375.22,108.416,372.092,105.288z"/>
	</g>
</g>
<g>
	<g>
		<path d="M372.092,139.224c-3.128-3.128-8.184-3.128-11.312,0l-11.312,11.312c-3.128,3.128-3.128,8.184,0,11.312
			c1.56,1.56,3.608,2.344,5.656,2.344c2.048,0,4.096-0.776,5.656-2.344l11.312-11.312
			C375.22,147.408,375.22,142.352,372.092,139.224z"/>
	</g>
</g>
<g>
	<g>
		<path d="M502.036,9.288c-12.088-12.096-33.152-12.096-45.248,0c-6.048,6.048-9.376,14.08-9.376,22.624s3.328,16.576,9.376,22.624
			c6.048,6.048,14.08,9.376,22.624,9.376s16.576-3.328,22.624-9.376c6.048-6.048,9.376-14.08,9.376-22.624
			S508.084,15.336,502.036,9.288z M490.724,43.224c-6.048,6.048-16.576,6.048-22.624,0c-3.024-3.024-4.688-7.04-4.688-11.312
			s1.664-8.288,4.688-11.312c3.024-3.024,7.04-4.688,11.312-4.688c4.272,0,8.288,1.664,11.312,4.688s4.688,7.04,4.688,11.312
			S493.748,40.2,490.724,43.224z"/>
	</g>
</g>
<g>
	<g>
		<path d="M502.036,43.224c-3.128-3.128-8.184-3.128-11.312,0l-33.936,33.944c-3.128,3.128-3.128,8.184,0,11.312
			c1.56,1.56,3.608,2.344,5.656,2.344c2.04,0,4.088-0.776,5.656-2.344l33.936-33.944C505.164,51.408,505.164,46.352,502.036,43.224z
			"/>
	</g>
</g>
<g>
	<g>
		<path d="M468.092,9.288c-3.128-3.128-8.184-3.128-11.312,0l-33.936,33.936c-3.128,3.128-3.128,8.184,0,11.312
			c1.56,1.56,3.608,2.344,5.656,2.344c2.048,0,4.096-0.784,5.656-2.344L468.092,20.6C471.22,17.472,471.22,12.416,468.092,9.288z"/>
	</g>
</g>
<g>
	<g>
		<path d="M468.092,43.224c-3.128-3.128-8.184-3.128-11.312,0l-11.312,11.312c-3.128,3.128-3.128,8.184,0,11.312
			c1.56,1.56,3.608,2.344,5.656,2.344c2.048,0,4.096-0.776,5.656-2.344l11.312-11.312C471.22,51.408,471.22,46.352,468.092,43.224z"
			/>
	</g>
</g>
<g>
	<g>
		<path d="M424.38,222.944c-9.064-9.064-24.872-9.064-33.936,0c-9.36,9.36-9.36,24.576,0,33.936
			c4.528,4.528,10.56,7.032,16.968,7.032c6.4,0,12.432-2.496,16.968-7.032C433.74,247.52,433.74,232.304,424.38,222.944z
			 M413.068,245.568c-3.032,3.016-8.28,3.016-11.312,0c-3.12-3.12-3.12-8.192,0-11.312c1.512-1.512,3.52-2.344,5.656-2.344
			c2.128,0,4.136,0.832,5.656,2.344C416.188,237.376,416.188,242.448,413.068,245.568z"/>
	</g>
</g>
<g>
	<g>
		<path d="M401.748,222.944c-3.128-3.128-8.184-3.128-11.312,0l-16.968,16.968c-3.128,3.128-3.128,8.184,0,11.312
			c1.56,1.56,3.608,2.344,5.656,2.344c2.048,0,4.096-0.784,5.656-2.344l16.968-16.968
			C404.876,231.128,404.876,226.072,401.748,222.944z"/>
	</g>
</g>
<g>
	<g>
		<path d="M424.38,245.568c-3.128-3.128-8.184-3.128-11.312,0L396.1,262.536c-3.128,3.128-3.128,8.184,0,11.312
			c1.56,1.56,3.608,2.344,5.656,2.344c2.04,0,4.088-0.776,5.656-2.344l16.968-16.968
			C427.508,253.752,427.508,248.696,424.38,245.568z"/>
	</g>
</g>
<g>
	<g>
		<path d="M496.38,150.944c-9.064-9.064-24.872-9.064-33.936,0c-9.36,9.36-9.36,24.576,0,33.936
			c4.528,4.528,10.56,7.032,16.968,7.032c6.4,0,12.432-2.496,16.968-7.032C505.74,175.52,505.74,160.304,496.38,150.944z
			 M485.068,173.568c-3.032,3.016-8.28,3.016-11.312,0c-3.12-3.12-3.12-8.192,0-11.312c1.512-1.512,3.52-2.344,5.656-2.344
			c2.128,0,4.136,0.832,5.656,2.344C488.188,165.376,488.188,170.448,485.068,173.568z"/>
	</g>
</g>
<g>
	<g>
		<path d="M473.748,150.944c-3.128-3.128-8.184-3.128-11.312,0l-16.968,16.968c-3.128,3.128-3.128,8.184,0,11.312
			c1.56,1.56,3.608,2.344,5.656,2.344c2.048,0,4.096-0.784,5.656-2.344l16.968-16.968
			C476.876,159.128,476.876,154.072,473.748,150.944z"/>
	</g>
</g>
<g>
	<g>
		<path d="M496.38,173.568c-3.128-3.128-8.184-3.128-11.312,0L468.1,190.536c-3.128,3.128-3.128,8.184,0,11.312
			c1.56,1.56,3.608,2.344,5.656,2.344c2.04,0,4.088-0.776,5.656-2.344l16.968-16.968
			C499.508,181.752,499.508,176.696,496.38,173.568z"/>
	</g>
</g>
<g>
	<g>
		<path d="M304.38,190.944c-9.064-9.064-24.872-9.064-33.936,0c-9.36,9.36-9.36,24.576,0,33.936
			c4.528,4.528,10.56,7.032,16.968,7.032c6.4,0,12.432-2.496,16.968-7.032C313.74,215.52,313.74,200.304,304.38,190.944z
			 M293.068,213.568c-3.032,3.016-8.28,3.016-11.312,0c-3.12-3.12-3.12-8.192,0-11.312c1.512-1.512,3.52-2.344,5.656-2.344
			c2.128,0,4.136,0.832,5.656,2.344C296.188,205.376,296.188,210.448,293.068,213.568z"/>
	</g>
</g>
<g>
	<g>
		<path d="M281.748,190.944c-3.128-3.128-8.184-3.128-11.312,0l-16.968,16.968c-3.128,3.128-3.128,8.184,0,11.312
			c1.56,1.56,3.608,2.344,5.656,2.344c2.048,0,4.096-0.784,5.656-2.344l16.968-16.968
			C284.876,199.128,284.876,194.072,281.748,190.944z"/>
	</g>
</g>
<g>
	<g>
		<path d="M304.38,213.568c-3.128-3.128-8.184-3.128-11.312,0L276.1,230.536c-3.128,3.128-3.128,8.184,0,11.312
			c1.56,1.56,3.608,2.344,5.656,2.344c2.04,0,4.088-0.776,5.656-2.344l16.968-16.968
			C307.508,221.752,307.508,216.696,304.38,213.568z"/>
	</g>
</g>
<g>
	<g>
		<path d="M336.38,22.944c-9.064-9.064-24.872-9.064-33.936,0c-9.36,9.36-9.36,24.576,0,33.936
			c4.528,4.528,10.56,7.032,16.968,7.032c6.4,0,12.432-2.496,16.968-7.032C345.74,47.52,345.74,32.304,336.38,22.944z
			 M325.068,45.568c-3.032,3.016-8.28,3.016-11.312,0c-3.12-3.12-3.12-8.192,0-11.312c1.512-1.512,3.52-2.344,5.656-2.344
			c2.128,0,4.136,0.832,5.656,2.344C328.188,37.376,328.188,42.448,325.068,45.568z"/>
	</g>
</g>
<g>
	<g>
		<path d="M313.748,22.944c-3.128-3.128-8.184-3.128-11.312,0l-16.968,16.968c-3.128,3.128-3.128,8.184,0,11.312
			c1.56,1.56,3.608,2.344,5.656,2.344c2.048,0,4.096-0.784,5.656-2.344l16.968-16.968C316.876,31.128,316.876,26.072,313.748,22.944
			z"/>
	</g>
</g>
<g>
	<g>
		<path d="M336.38,45.568c-3.128-3.128-8.184-3.128-11.312,0L308.1,62.536c-3.128,3.128-3.128,8.184,0,11.312
			c1.56,1.56,3.608,2.344,5.656,2.344c2.04,0,4.088-0.776,5.656-2.344L336.38,56.88C339.508,53.752,339.508,48.696,336.38,45.568z"
			/>
	</g>
</g>
<g>
</g>
<g>
</g>
<g>
</g>
<g>
</g>
<g>
</g>
<g>
</g>
<g>
</g>
<g>
</g>
<g>
</g>
<g>
</g>
<g>
</g>
<g>
</g>
<g>
</g>
<g>
</g>
<g>
</g>
</svg>
